<?xml version="1.0" standalone="no"?>
<!DOCTYPE svg PUBLIC "-//W3C//DTD SVG 20010904//EN"
 "http://www.w3.org/TR/2001/REC-SVG-20010904/DTD/svg10.dtd">
<svg version="1.0" xmlns="http://www.w3.org/2000/svg"
 width="250.000000pt" height="250.000000pt" viewBox="0 0 250.000000 250.000000"
 preserveAspectRatio="xMidYMid meet">
<metadata>
Created by potrace 1.11, written by Peter Selinger 2001-2013
</metadata>
<g transform="translate(0.000000,250.000000) scale(0.100000,-0.100000)"
fill="#000000" stroke="none">
<path d="M1164 2107 c-100 -26 -244 -137 -270 -208 -7 -19 -13 -48 -13 -65 -1
-38 -12 -47 -76 -64 -157 -40 -397 -152 -507 -236 -86 -67 -166 -161 -206
-244 -34 -70 -37 -81 -36 -170 0 -109 29 -234 72 -315 56 -104 185 -216 329
-288 82 -41 201 -75 378 -108 149 -28 197 -32 390 -36 216 -5 223 -4 370 26
160 33 280 68 342 99 21 11 77 39 125 62 151 73 279 223 348 410 27 73 32 98
31 177 0 80 -4 103 -31 165 -48 116 -144 227 -260 300 -101 64 -330 145 -457
163 l-50 7 -7 45 c-8 62 -37 123 -82 172 -35 39 -110 88 -120 78 -3 -2 9 -10
25 -17 41 -17 104 -86 137 -151 24 -49 26 -61 22 -139 -4 -66 -11 -97 -32
-138 -30 -60 -98 -138 -127 -147 -10 -4 -19 -11 -19 -17 0 -5 6 -8 14 -5 7 3
34 -9 59 -27 55 -39 164 -62 257 -53 69 6 107 26 116 62 8 33 -11 55 -50 55
l-31 1 28 24 c32 29 56 31 97 10 28 -14 30 -20 30 -70 0 -68 -22 -126 -59
-153 -54 -39 -279 -79 -296 -52 -4 6 10 10 36 10 51 0 43 14 -9 15 -20 1 -47
5 -59 9 -33 11 -28 -5 10 -35 52 -41 190 -99 242 -101 39 -2 51 2 66 21 24 30
24 42 -1 48 -27 7 -20 26 13 37 22 8 33 6 55 -11 39 -29 43 -89 7 -131 -58
-69 -171 -79 -330 -28 -44 14 -90 26 -103 26 -15 0 -26 9 -32 26 -14 35 -13
37 10 31 26 -7 26 5 -1 22 -33 20 -39 -1 -23 -72 18 -75 35 -99 95 -136 44
-27 89 -28 96 -2 6 23 29 17 44 -11 8 -14 6 -25 -6 -44 -18 -28 -69 -32 -150
-10 -100 26 -148 67 -205 172 -64 119 -117 117 -185 -5 -47 -87 -119 -178
-164 -208 -63 -42 -151 -25 -165 33 -9 36 0 59 30 73 29 13 44 7 26 -11 -7 -7
-8 -17 -1 -30 26 -48 87 5 127 110 28 75 49 172 37 172 -13 0 -55 -33 -55 -43
0 -7 4 -7 12 1 19 19 28 14 28 -12 0 -50 -147 -140 -277 -170 -102 -23 -127
-21 -165 12 -27 25 -31 36 -31 77 0 38 4 52 22 67 26 20 72 24 102 8 27 -15
24 -32 -5 -24 -32 8 -54 -27 -31 -50 42 -41 56 -35 199 82 65 53 144 148 133
159 -2 1 -25 -7 -53 -18 -42 -17 -45 -19 -16 -16 35 4 40 -4 17 -26 -38 -38
-295 -33 -375 8 -66 34 -85 59 -85 114 0 58 24 98 72 118 41 17 75 8 92 -25 9
-18 7 -20 -20 -18 -58 2 -66 -64 -12 -99 44 -29 158 -32 227 -6 76 28 114 48
157 82 20 16 40 29 43 29 12 0 6 -24 -11 -42 -27 -30 -9 -30 21 1 l27 29 -60
67 c-82 92 -113 159 -119 256 -4 70 -2 81 24 129 43 80 144 148 253 171 50 10
146 8 216 -5 29 -6 29 -6 -5 10 -46 21 -163 27 -226 11z m-284 -361 c0 -8 3
-21 6 -30 5 -14 3 -14 -30 -1 -50 21 -62 19 -162 -19 -49 -18 -100 -37 -114
-40 -23 -6 -23 -6 -6 5 40 25 251 95 294 98 6 1 12 -5 12 -13z m928 -22 c216
-59 404 -155 466 -240 l29 -39 -44 41 c-51 48 -173 123 -242 149 l-48 18 -42
-40 c-37 -36 -87 -64 -87 -49 0 3 11 17 25 32 31 34 32 69 3 88 -13 7 -56 23
-95 35 -40 12 -73 24 -73 26 0 8 7 6 108 -21z m-45 -18 c32 -12 54 -26 50 -30
-5 -5 4 -6 20 -4 30 6 31 5 16 -23 -7 -14 -16 -18 -32 -14 -18 5 -19 4 -7 -5
11 -9 12 -13 3 -17 -14 -5 -18 -33 -5 -33 5 0 15 11 22 24 7 14 19 27 27 30
15 6 10 -5 -14 -34 -7 -8 -19 -24 -27 -35 -13 -17 -15 -18 -16 -3 0 22 -54 37
-120 34 -27 -1 -51 3 -53 8 -2 5 -6 2 -10 -7 -6 -15 2 -17 73 -17 82 0 104
-10 78 -36 -12 -12 -21 -13 -43 -4 -21 8 -42 8 -76 0 -27 -7 -58 -9 -70 -5
-15 5 -19 4 -15 -4 5 -8 32 -9 84 -5 59 4 82 2 96 -8 16 -13 8 -14 -70 -11
-49 2 -99 6 -112 9 l-23 5 23 32 c27 38 45 67 53 87 4 8 11 23 16 32 5 10 9
27 9 39 0 16 4 19 21 14 16 -5 19 -4 14 6 -6 9 -3 10 11 4 10 -4 45 -18 77
-29z m-948 -6 c-3 -5 -13 -10 -22 -10 -19 0 -137 -52 -141 -62 -2 -4 -9 -8
-16 -8 -6 0 -31 -18 -55 -40 -43 -40 -74 -50 -87 -28 -7 10 0 17 43 45 16 10
16 11 -4 6 -12 -3 -28 -11 -34 -19 -14 -17 -29 -18 -29 -1 0 18 37 38 100 53
30 7 87 26 125 43 69 30 132 41 120 21z m63 -30 c3 -18 0 -21 -13 -17 -10 4
-14 3 -10 -4 4 -6 13 -8 20 -6 15 6 43 -24 37 -41 -2 -7 1 -12 7 -12 26 0 7
-23 -36 -43 -53 -25 -97 -52 -128 -78 -26 -21 -88 -34 -83 -17 3 7 18 15 35
19 17 3 46 17 64 31 19 14 42 28 52 31 9 4 20 15 23 24 4 10 18 28 33 40 14
13 20 23 13 23 -6 0 -30 -18 -51 -40 -73 -75 -171 -125 -171 -87 0 35 93 118
155 138 17 6 17 7 2 8 -20 1 -127 -57 -127 -69 0 -15 -42 -60 -51 -54 -6 4 -6
10 0 18 8 10 -1 11 -46 5 -32 -4 -59 -6 -61 -4 -4 4 81 55 91 55 4 0 4 -7 0
-16 -5 -14 -3 -14 15 -3 14 9 18 17 12 23 -15 15 -12 26 5 26 8 0 15 4 15 10
0 5 8 7 18 3 9 -3 14 -2 9 2 -7 9 139 65 158 61 6 -2 12 -13 13 -26z m1243
-107 c95 -54 169 -116 156 -129 -4 -4 -26 11 -49 32 -39 36 -204 134 -225 134
-4 0 32 -22 80 -49 122 -66 174 -111 175 -150 0 -22 -4 -31 -15 -31 -13 0 -13
3 -3 15 10 12 10 15 -3 15 -17 0 -31 -17 -32 -37 0 -7 -4 -12 -10 -10 -5 1 -9
8 -7 15 3 12 -8 16 -41 13 -9 -1 -24 5 -33 13 -8 9 -37 30 -62 48 -55 38 -146
128 -137 136 6 7 13 3 69 -42 20 -16 39 -26 42 -24 3 3 -11 15 -31 26 -19 12
-35 26 -35 32 0 6 5 8 12 4 7 -4 8 -3 4 4 -4 7 -14 12 -22 12 -19 0 -18 17 4
29 25 16 55 6 163 -56z m-1669 25 c-7 -7 -12 -25 -12 -40 0 -25 -4 -28 -31
-28 -19 0 -28 4 -23 11 11 19 -38 -11 -90 -55 -81 -68 -125 -117 -131 -147 -4
-16 -11 -31 -16 -35 -32 -19 -68 -148 -55 -198 7 -29 63 -51 104 -41 15 4 60
9 101 11 40 3 82 9 93 15 11 6 35 43 53 82 18 40 44 83 58 95 l25 24 44 -26
c49 -29 151 -55 227 -58 28 -1 51 -5 51 -8 0 -3 -27 -24 -59 -47 -59 -43 -111
-56 -111 -29 0 9 11 13 33 12 27 -1 31 2 29 19 -6 33 -28 48 -81 53 -46 4 -53
2 -82 -27 -29 -29 -31 -36 -27 -82 6 -55 33 -93 83 -115 25 -10 43 -10 100 1
39 7 83 18 98 24 41 16 43 14 13 -10 -37 -29 -36 -78 4 -118 61 -61 128 -51
218 33 84 78 187 95 309 52 78 -28 255 -76 278 -76 26 0 74 29 86 51 16 31 3
66 -31 84 -37 19 -64 19 -84 0 -14 -14 -18 -14 -46 0 -33 17 -40 35 -13 35 9
0 65 -5 123 -11 162 -18 252 8 307 90 18 27 22 43 17 70 -7 42 -54 91 -86 91
-20 0 -21 2 -7 15 13 13 19 13 54 -5 56 -28 123 -23 146 11 3 5 32 14 65 20
70 13 125 56 117 92 -4 19 -1 18 22 -8 60 -69 95 -177 95 -296 0 -104 -90
-300 -187 -405 -132 -143 -362 -240 -718 -304 -105 -19 -143 -21 -305 -16
-156 5 -214 11 -365 41 -288 57 -351 78 -483 162 -142 91 -247 230 -235 309 8
54 20 65 67 63 46 -2 85 11 105 34 7 9 26 19 43 22 25 6 36 2 67 -28 20 -19
68 -51 106 -70 39 -19 79 -44 89 -56 23 -25 7 -28 -32 -5 l-27 16 25 -21 25
-21 -25 -20 c-14 -11 -31 -20 -37 -20 -7 0 -13 -4 -13 -10 0 -5 -7 -10 -15
-10 -17 0 -112 -86 -104 -94 2 -3 23 11 44 30 22 20 58 45 80 56 22 11 44 27
48 35 5 7 12 11 17 8 4 -3 11 3 14 12 6 15 8 15 16 3 14 -22 12 -40 -5 -40 -8
0 -15 -4 -15 -10 0 -5 -7 -10 -15 -10 -8 0 -15 -4 -15 -9 0 -5 -11 -12 -25
-15 -14 -4 -25 -13 -25 -21 0 -8 -3 -15 -8 -15 -4 0 -25 -18 -47 -40 -22 -21
-50 -39 -61 -40 -14 0 -48 28 -95 76 -146 152 -179 183 -179 174 0 -11 65 -82
176 -195 89 -91 88 -91 126 -66 18 11 49 37 68 57 19 20 59 52 88 70 50 32 52
36 52 77 0 54 -28 84 -121 125 -37 17 -82 46 -102 66 -44 44 -68 45 -127 6
-36 -24 -56 -30 -98 -30 -50 0 -54 -2 -65 -30 -6 -16 -14 -30 -17 -30 -11 0
-30 125 -30 198 0 88 27 167 83 240 55 72 141 149 218 195 63 37 94 48 71 25z
m558 -84 c1 -28 -94 -85 -198 -119 -46 -15 -62 -15 -117 -5 -36 7 -70 19 -77
28 -11 13 -10 15 4 10 25 -10 127 17 151 40 12 12 56 39 97 60 54 29 75 45 73
58 -1 12 9 5 32 -21 19 -22 34 -45 35 -51z m-499 3 c-8 -8 -18 -4 -36 13 -33
31 -21 46 16 19 22 -15 27 -25 20 -32z m1289 24 c0 -5 -7 -14 -15 -21 -12 -10
-15 -10 -15 2 0 8 3 18 7 21 9 10 23 9 23 -2z m-1422 -33 c-3 -7 -26 -29 -53
-48 -65 -47 -115 -95 -115 -111 0 -8 9 0 20 18 10 17 29 37 42 44 13 6 43 28
68 48 78 63 80 64 80 52 0 -6 -33 -38 -74 -72 -46 -37 -79 -73 -85 -91 -15
-43 -13 -47 9 -20 10 13 17 29 14 36 -3 8 9 23 28 36 18 13 54 43 80 68 26 25
51 42 55 38 5 -4 -11 -24 -34 -44 -61 -53 -70 -90 -36 -147 l12 -20 15 20 c20
26 20 55 0 84 -16 23 -16 24 21 58 20 19 40 32 42 29 3 -3 6 -40 7 -83 2 -70
-1 -82 -24 -113 -14 -19 -35 -55 -45 -79 -24 -54 -51 -67 -83 -38 l-22 21 4
-35 c2 -19 6 -33 10 -31 26 11 38 13 52 8 25 -10 10 -31 -22 -32 -17 0 -36 -4
-43 -8 -7 -5 -17 -4 -23 2 -6 6 -21 7 -40 1 -17 -4 -34 -6 -39 -4 -4 3 -9 -1
-12 -7 -3 -10 -9 -11 -26 0 -11 6 -28 12 -36 12 -10 0 -15 10 -15 31 0 27 2
30 15 19 9 -7 18 -10 21 -7 9 9 -5 27 -22 27 -23 0 -17 19 37 128 35 69 62
110 83 124 17 12 51 39 75 60 45 39 66 48 59 26z m1167 2 c3 -5 46 -10 95 -10
53 0 92 -4 96 -11 3 -6 16 -8 29 -5 17 4 24 1 28 -14 3 -12 14 -20 27 -20 17
0 20 4 15 20 -5 14 -2 20 10 20 25 0 14 -42 -15 -58 -33 -17 -211 -10 -260 10
-42 18 -64 42 -56 63 6 17 22 20 31 5z m510 -77 c44 -31 62 -50 55 -57 -7 -7
-21 1 -44 23 -33 32 -34 32 -55 15 -28 -24 -27 -29 9 -44 30 -13 41 -30 18
-30 -7 0 -27 9 -44 19 -31 19 -31 20 -21 70 5 28 11 51 13 51 2 0 33 -21 69
-47z m-1420 27 c3 -5 -1 -10 -9 -10 -9 0 -16 5 -16 10 0 6 4 10 9 10 6 0 13
-4 16 -10z m1429 -72 c29 -41 17 -50 -23 -19 -13 10 -21 23 -17 30 11 17 23
13 40 -11z m-1658 -24 c7 -27 -7 -50 -25 -40 -6 4 -11 20 -11 37 0 37 27 40
36 3z m1744 2 c0 -3 -4 -8 -10 -11 -5 -3 -10 -1 -10 4 0 6 5 11 10 11 6 0 10
-2 10 -4z m-151 -23 c27 -16 41 -33 26 -33 -12 0 -75 35 -75 42 0 13 16 10 49
-9z m121 9 c0 -11 -60 -45 -67 -38 -4 3 -4 7 -2 9 8 5 64 35 67 36 1 1 2 -3 2
-7z m-1610 -40 c0 -5 -15 -26 -33 -48 -19 -21 -42 -60 -52 -86 -16 -43 -35
-64 -35 -38 0 14 34 84 43 88 4 2 7 8 7 14 0 15 49 78 61 78 5 0 9 -4 9 -8z
m1330 -77 c-17 -20 -4 -32 19 -18 23 14 35 5 20 -14 -14 -16 -77 -17 -116 -2
l-28 11 47 17 c26 9 50 19 54 24 13 13 17 -2 4 -18z m-524 -92 c41 -45 43 -56
7 -46 -16 4 -52 7 -81 7 -57 -2 -57 -2 -8 54 27 31 43 28 82 -15z m-318 -100
c-21 -49 -78 -102 -78 -73 0 6 7 10 15 10 22 0 18 16 -7 34 -25 18 -26 18 27
38 55 22 56 22 43 -9z"/>
<path d="M1697 1699 c7 -7 15 -10 18 -7 3 3 -2 9 -12 12 -14 6 -15 5 -6 -5z"/>
<path d="M1684 1671 c35 -28 36 -30 14 -34 -13 -2 0 -3 27 0 36 2 46 1 35 -7
-13 -8 -12 -10 3 -10 31 0 13 23 -24 33 -19 5 -43 17 -55 28 -11 10 -24 19
-29 19 -4 0 9 -13 29 -29z"/>
<path d="M1645 1660 c3 -5 11 -10 16 -10 6 0 7 5 4 10 -3 6 -11 10 -16 10 -6
0 -7 -4 -4 -10z"/>
<path d="M880 1580 c-9 -6 -10 -10 -3 -10 6 0 15 5 18 10 8 12 4 12 -15 0z"/>
<path d="M2005 1554 c23 -18 166 -86 171 -81 2 1 -41 24 -94 49 -53 26 -88 40
-77 32z"/>
<path d="M2040 1506 c0 -2 16 -16 35 -30 19 -15 32 -21 30 -14 -5 12 -65 52
-65 44z"/>
<path d="M2130 1449 c0 -5 5 -7 10 -4 6 3 10 8 10 11 0 2 -4 4 -10 4 -5 0 -10
-5 -10 -11z"/>
<path d="M2200 1445 c15 -18 0 -20 -20 -2 -8 6 -6 2 4 -10 10 -12 24 -19 32
-16 13 5 12 8 -2 24 -20 22 -32 26 -14 4z"/>
<path d="M2140 1284 c-64 -38 -90 -64 -90 -90 0 -12 -15 -44 -33 -70 -46 -66
-67 -109 -67 -134 0 -31 30 -70 54 -70 24 0 75 -29 114 -66 33 -30 88 -47 112
-34 34 18 109 111 136 168 32 67 45 162 33 228 -13 66 -26 77 -101 79 -35 0
-74 4 -88 8 -18 5 -37 0 -70 -19z m132 -15 c14 1 33 -5 41 -13 8 -8 17 -13 19
-10 3 2 8 -13 12 -36 8 -50 -36 -153 -91 -214 -21 -22 -46 -52 -55 -66 -13
-19 -17 -21 -17 -8 -1 9 19 42 43 75 53 71 106 174 105 205 0 20 -2 19 -11 -7
-6 -16 -19 -41 -29 -54 -11 -13 -19 -29 -19 -35 0 -6 -21 -43 -48 -82 -26 -39
-52 -79 -58 -90 -8 -13 -15 -16 -23 -9 -8 8 -3 22 15 50 l25 40 -25 -30 c-14
-16 -26 -33 -26 -37 0 -5 -4 -8 -10 -8 -16 0 -11 23 10 50 11 14 20 31 20 38
0 24 -26 11 -69 -35 -34 -36 -39 -45 -23 -41 15 4 22 2 22 -8 0 -8 6 -11 15
-8 8 4 15 2 15 -4 0 -5 9 -12 20 -15 14 -3 20 -14 20 -31 0 -28 -14 -34 -27
-13 -13 22 -76 61 -103 65 -28 4 -47 18 -37 28 4 4 13 1 22 -6 12 -10 16 -9
21 6 11 38 22 50 85 95 56 39 67 53 91 110 14 35 27 71 27 79 0 14 -21 -33
-49 -107 -8 -22 -33 -46 -80 -78 -38 -25 -72 -54 -75 -65 -7 -21 -14 -24 -39
-14 -25 10 -19 27 34 106 27 40 50 83 50 95 0 25 24 53 46 53 8 0 14 5 14 10
0 6 7 10 15 10 18 0 19 -16 4 -59 -12 -34 -24 -40 -33 -15 -4 9 -9 14 -13 11
-7 -8 15 -37 28 -37 15 0 50 83 39 94 -21 21 -9 29 33 22 23 -4 54 -7 69 -7z
m108 -35 c8 -23 10 -56 5 -88 -4 -28 -7 -60 -6 -71 0 -29 -56 -133 -101 -188
-32 -38 -46 -47 -67 -45 -16 2 -27 10 -29 21 -3 15 0 18 17 12 12 -4 21 -2 21
4 0 6 -4 11 -10 11 -21 0 -8 25 44 85 57 64 106 159 106 204 0 14 -4 41 -9 59
-14 47 14 43 29 -4z m-240 -211 c-1 -15 -49 -67 -56 -61 -3 4 4 20 17 37 23
29 39 39 39 24z m27 -165 c-3 -8 -6 -5 -6 6 -1 11 2 17 5 13 3 -3 4 -12 1 -19z"/>
<path d="M2256 1217 c3 -10 9 -15 12 -12 3 3 0 11 -7 18 -10 9 -11 8 -5 -6z"/>
<path d="M2218 1119 c-15 -21 -26 -39 -23 -39 7 0 58 70 54 74 -2 2 -16 -14
-31 -35z"/>
<path d="M2181 1054 c0 -11 3 -14 6 -6 3 7 2 16 -1 19 -3 4 -6 -2 -5 -13z"/>
<path d="M2337 1038 c-2 -7 -28 -42 -57 -76 -29 -35 -50 -65 -48 -68 3 -2 31
30 63 71 32 42 55 78 53 81 -3 3 -8 -1 -11 -8z"/>
<path d="M340 1003 c0 -17 56 -75 89 -93 21 -10 52 -35 69 -55 18 -20 32 -32
32 -27 0 5 -21 27 -46 48 -25 22 -68 60 -95 86 -27 27 -49 45 -49 41z"/>
<path d="M290 966 c0 -2 8 -10 18 -17 15 -13 16 -12 3 4 -13 16 -21 21 -21 13z"/>
<path d="M1814 896 c-39 -18 -93 -37 -120 -41 -27 -4 -76 -17 -109 -30 -33
-12 -78 -22 -100 -22 -40 -1 -163 -48 -152 -59 3 -3 1 -18 -4 -32 -7 -18 -5
-46 7 -96 9 -39 19 -84 23 -100 3 -16 18 -37 31 -48 24 -18 30 -18 125 -4 55
8 137 16 182 17 66 1 91 7 135 29 62 31 216 124 231 139 14 14 9 98 -8 131
-14 28 -76 80 -94 80 -6 0 -11 3 -11 8 0 10 -49 62 -58 62 -4 -1 -39 -16 -78
-34z m112 -23 c10 -16 17 -32 16 -36 -1 -5 7 -6 18 -2 11 3 20 2 20 -3 0 -5
11 -14 25 -20 30 -14 33 -42 5 -42 -11 0 -23 -7 -26 -15 -4 -8 -12 -15 -18
-15 -7 0 -28 -12 -47 -26 -55 -41 -133 -72 -216 -84 -43 -7 -89 -17 -103 -22
-14 -6 -54 -14 -90 -18 -36 -4 -73 -11 -84 -16 -16 -6 -18 -3 -14 25 3 19 1
30 -6 28 -6 -2 -11 -23 -12 -46 -1 -23 -6 -47 -11 -52 -6 -6 -9 3 -8 26 0 19
-3 35 -8 35 -5 0 -6 7 -3 16 3 8 -1 26 -10 39 -16 25 -16 70 1 70 6 0 14 -17
19 -37 9 -34 26 -53 26 -28 0 5 17 18 38 29 20 11 31 20 24 21 -7 0 -24 -7
-38 -16 -13 -9 -26 -15 -27 -13 -14 19 -37 59 -37 63 0 14 71 39 132 47 37 5
82 16 99 24 17 9 63 22 102 30 40 8 97 25 127 39 70 33 83 32 106 -1z m114
-122 c0 -5 -10 -13 -22 -17 -13 -4 -39 -17 -58 -28 -39 -24 -90 -48 -90 -42 0
7 152 94 168 96 1 0 2 -4 2 -9z m12 -33 c-8 -8 -8 -15 -2 -23 18 -21 1 -39
-83 -89 -160 -96 -169 -99 -296 -107 -64 -4 -140 -12 -170 -18 -79 -16 -91
-15 -91 12 1 42 23 57 101 67 41 5 92 14 114 19 22 6 50 8 62 5 31 -8 99 17
233 86 112 57 158 74 132 48z m-262 -96 c-20 -9 -68 -17 -110 -18 l-75 -3 70
9 c39 5 84 13 100 19 46 14 54 11 15 -7z"/>
<path d="M1878 823 c-16 -2 -28 -11 -28 -19 0 -18 7 -17 50 6 35 19 31 21 -22
13z"/>
<path d="M1760 773 c-53 -29 -71 -34 -102 -29 -24 4 -38 2 -38 -5 0 -6 -9 -8
-22 -4 -16 4 -19 3 -9 -3 7 -5 9 -12 5 -14 -5 -3 -2 -2 6 0 42 14 87 13 99 -2
8 -9 19 -16 25 -16 6 0 5 4 -3 9 -19 13 -6 29 44 52 24 11 49 27 56 35 15 18
15 18 -61 -23z"/>
<path d="M1789 739 c-30 -28 -35 -34 -14 -21 30 20 73 62 63 62 -3 0 -25 -18
-49 -41z"/>
<path d="M1845 729 c-4 -11 -21 -29 -38 -40 -18 -10 -26 -19 -19 -19 16 0 72
54 72 69 0 18 -8 13 -15 -10z"/>
<path d="M1488 703 c7 -3 16 -2 19 1 4 3 -2 6 -13 5 -11 0 -14 -3 -6 -6z"/>
<path d="M1495 664 c-18 -16 -22 -22 -9 -15 18 9 53 42 43 41 -2 -1 -17 -12
-34 -26z"/>
<path d="M1996 675 c-11 -8 -15 -15 -9 -15 6 0 16 7 23 15 16 19 11 19 -14 0z"/>
<path d="M1099 903 c-13 -16 -12 -17 4 -4 9 7 17 15 17 17 0 8 -8 3 -21 -13z"/>
<path d="M510 883 c1 -13 40 -56 45 -51 3 3 -1 11 -10 18 -8 7 -15 19 -15 26
0 8 -4 14 -10 14 -5 0 -10 -3 -10 -7z"/>
<path d="M460 856 c0 -2 8 -10 18 -17 15 -13 16 -12 3 4 -13 16 -21 21 -21 13z"/>
<path d="M415 800 c10 -11 20 -18 23 -15 7 6 -18 35 -31 35 -5 0 -2 -9 8 -20z"/>
<path d="M661 787 c-13 -21 -12 -21 5 -5 10 10 16 20 13 22 -3 3 -11 -5 -18
-17z"/>
<path d="M688 773 c-94 -94 -138 -157 -138 -194 0 -22 50 -59 80 -59 17 0 41
-5 53 -12 12 -6 58 -17 102 -25 44 -8 117 -23 162 -34 93 -22 219 -31 246 -17
9 5 17 15 17 23 0 8 5 15 10 15 6 0 10 10 10 23 0 12 4 28 9 35 5 8 3 42 -4
79 -7 36 -10 84 -7 108 l4 42 -47 19 c-41 15 -55 16 -104 6 -80 -17 -198 -14
-246 5 -79 30 -106 28 -147 -14z m126 -3 c54 -24 199 -29 266 -9 56 17 116 -1
122 -36 4 -17 1 -25 -8 -25 -17 0 -18 -12 -3 -27 15 -15 3 -33 -24 -34 -20 -1
-20 -2 3 -8 14 -4 26 -15 28 -24 3 -14 -5 -17 -50 -18 -51 -1 -52 -1 -18 -10
19 -4 41 -6 48 -4 11 4 17 -13 13 -43 -1 -8 3 -20 9 -27 9 -10 7 -20 -5 -38
-15 -24 -19 -25 -98 -20 -45 2 -104 11 -132 18 -27 7 -90 20 -140 30 -49 9
-112 23 -140 30 -27 8 -62 17 -76 20 -28 5 -44 29 -32 48 4 7 8 19 8 28 2 17
40 59 55 59 6 0 10 7 10 17 0 21 78 93 100 93 10 0 38 -9 64 -20z"/>
<path d="M781 716 c-10 -12 -7 -18 18 -30 16 -9 36 -16 43 -16 7 1 -2 7 -19
15 -36 15 -42 31 -15 38 14 4 14 5 1 6 -9 0 -22 -5 -28 -13z"/>
<path d="M860 703 c34 -14 34 -15 15 -30 -18 -14 -18 -15 -2 -9 10 3 21 6 23
6 2 0 4 6 4 14 0 8 -14 19 -31 25 -45 16 -50 12 -9 -6z"/>
<path d="M1120 684 c-33 -13 -33 -14 -5 -8 17 3 34 10 40 15 11 11 8 11 -35
-7z"/>
<path d="M966 681 c-3 -5 1 -14 9 -21 12 -10 15 -9 15 4 0 12 7 14 33 11 28
-4 29 -4 7 4 -34 12 -58 13 -64 2z"/>
<path d="M700 673 c31 -3 52 -11 68 -29 24 -25 47 -30 72 -14 12 8 11 10 -5
10 -12 0 -38 9 -60 20 -23 12 -56 19 -80 18 l-40 -1 45 -4z"/>
<path d="M632 638 c7 -4 40 -7 73 -7 73 1 62 6 -23 11 -34 3 -57 1 -50 -4z"/>
<path d="M852 625 c-13 -16 -5 -19 22 -9 9 3 13 10 10 15 -7 13 -17 11 -32 -6z"/>
<path d="M1048 633 c12 -2 32 -2 45 0 12 2 2 4 -23 4 -25 0 -35 -2 -22 -4z"/>
<path d="M610 620 c8 -5 20 -10 25 -10 6 0 3 5 -5 10 -8 5 -19 10 -25 10 -5 0
-3 -5 5 -10z"/>
<path d="M963 613 c9 -2 23 -2 30 0 6 3 -1 5 -18 5 -16 0 -22 -2 -12 -5z"/>
<path d="M663 603 c9 -2 23 -2 30 0 6 3 -1 5 -18 5 -16 0 -22 -2 -12 -5z"/>
<path d="M908 603 c-27 -7 -21 -23 7 -23 14 0 25 4 25 9 0 13 -12 18 -32 14z"/>
<path d="M1018 603 c7 -3 16 -2 19 1 4 3 -2 6 -13 5 -11 0 -14 -3 -6 -6z"/>
<path d="M740 590 c14 -4 36 -8 50 -8 22 0 22 1 -5 8 -16 4 -39 8 -50 8 -16 0
-15 -2 5 -8z"/>
<path d="M845 565 c17 -8 37 -14 45 -14 8 0 -1 7 -20 14 -46 18 -64 17 -25 0z"/>
<path d="M973 573 c9 -2 25 -2 35 0 9 3 1 5 -18 5 -19 0 -27 -2 -17 -5z"/>
<path d="M1036 558 c3 -5 21 -8 40 -8 19 0 34 3 34 8 0 4 -18 7 -39 7 -22 0
-37 -3 -35 -7z"/>
<path d="M748 553 c7 -3 16 -2 19 1 4 3 -2 6 -13 5 -11 0 -14 -3 -6 -6z"/>
<path d="M918 543 c7 -3 16 -2 19 1 4 3 -2 6 -13 5 -11 0 -14 -3 -6 -6z"/>
<path d="M946 1528 c3 -5 10 -6 15 -3 13 9 11 12 -6 12 -8 0 -12 -4 -9 -9z"/>
<path d="M324 1372 c11 -18 -11 -67 -56 -127 -21 -27 -38 -57 -38 -64 0 -8 13
5 30 30 16 24 43 62 60 83 34 45 37 58 13 77 -13 11 -15 11 -9 1z"/>
<path d="M184 1287 c-12 -18 -24 -44 -28 -57 -4 -14 7 -1 23 29 35 60 37 77 5
28z"/>
<path d="M232 1255 c-17 -37 -14 -45 4 -12 9 16 14 31 11 33 -2 2 -9 -7 -15
-21z"/>
<path d="M281 1201 c-12 -16 -21 -35 -20 -43 0 -7 4 -3 9 10 5 12 16 22 25 22
8 0 15 9 15 20 0 27 -5 25 -29 -9z"/>
<path d="M195 1169 c-4 -6 -5 -12 -2 -15 2 -3 7 2 10 11 7 17 1 20 -8 4z"/>
<path d="M169 1130 c-15 -10 16 -21 36 -14 9 4 15 0 15 -7 0 -10 2 -11 8 -2 4
6 15 11 24 10 9 -1 16 2 15 8 -2 11 -81 15 -98 5z"/>
<path d="M955 1010 c-3 -5 -1 -10 4 -10 6 0 11 5 11 10 0 6 -2 10 -4 10 -3 0
-8 -4 -11 -10z"/>
<path d="M1135 1710 c-52 -58 16 -148 70 -93 31 31 2 113 -40 113 -7 0 -20 -9
-30 -20z m55 -20 c0 -5 -4 -10 -10 -10 -5 0 -10 5 -10 10 0 6 5 10 10 10 6 0
10 -4 10 -10z"/>
<path d="M1340 1711 c-17 -33 -12 -89 9 -101 31 -16 59 -12 71 11 16 28 16 75
0 94 -18 22 -67 19 -80 -4z m77 -17 c-3 -3 -12 -4 -19 -1 -8 3 -5 6 6 6 11 1
17 -2 13 -5z"/>
<path d="M1200 1518 c0 -19 27 -56 49 -68 26 -13 71 23 71 56 0 24 -14 32 -25
14 -8 -13 -51 -13 -76 0 -14 8 -19 7 -19 -2z"/>
<path d="M1400 1309 c7 -11 14 -19 16 -16 7 7 -7 37 -17 37 -6 0 -5 -9 1 -21z"/>
</g>
</svg>
